<svg width="223" height="95" viewBox="0 0 223 95" fill="none" xmlns="http://www.w3.org/2000/svg">
<g clip-path="url(#clip0_80_1354)">
<path d="M16.2465 56.6833C13.5135 56.6833 10.9576 56.2024 8.57878 55.2408C6.25061 54.2792 4.27674 52.938 2.65714 51.2171L7.06041 45.3714C8.68 46.8392 10.1731 47.902 11.5396 48.56C12.9567 49.1673 14.222 49.471 15.3355 49.471C16.6514 49.471 17.7396 49.2686 18.6 48.8637C19.4604 48.4588 19.8906 47.8008 19.8906 46.8898C19.8906 46.0294 19.5363 45.3461 18.8278 44.84C18.1698 44.3339 17.3094 43.929 16.2465 43.6253C15.1837 43.271 14.0449 42.9167 12.8302 42.5624C9.79347 41.6008 7.59184 40.209 6.22531 38.3869C4.90939 36.5143 4.25143 34.4898 4.25143 32.3135C4.25143 30.6433 4.68163 28.9731 5.54204 27.3028C6.45306 25.582 7.87021 24.1649 9.79347 23.0514C11.7674 21.8873 14.298 21.3053 17.3853 21.3053C20.169 21.3053 22.5225 21.5837 24.4457 22.1404C26.369 22.6971 28.191 23.6082 29.9118 24.8735L25.8882 31.0988C24.9265 30.3396 23.8384 29.7069 22.6237 29.2008C21.4596 28.6441 20.3714 28.3404 19.3592 28.2898C17.9927 28.2392 16.9298 28.4922 16.1706 29.049C15.4114 29.5551 15.0318 30.1624 15.0318 30.871C14.9812 31.8326 15.3355 32.5918 16.0947 33.1486C16.9045 33.7053 17.9167 34.1355 19.1314 34.4392C20.3461 34.7428 21.5355 35.0971 22.6996 35.502C25.0784 36.3118 26.9763 37.4759 28.3935 38.9943C29.8106 40.462 30.5192 42.4359 30.5192 44.9159C30.5192 46.9404 29.9878 48.8637 28.9249 50.6857C27.9127 52.4571 26.3437 53.8996 24.218 55.0131C22.1429 56.1265 19.4857 56.6833 16.2465 56.6833ZM42.4561 57.5943C39.47 57.5943 36.9647 56.6833 34.9402 54.8612C32.9157 52.9886 31.8529 50.5845 31.7516 47.649V22.8237H42.3802V43.7012C42.4814 45.169 42.861 46.3584 43.519 47.2694C44.1769 48.1298 45.2904 48.56 46.8594 48.56C49.2382 48.56 51.1108 47.4212 52.4773 45.1437C53.8439 42.8155 54.5271 39.88 54.5271 36.3371V22.8237H65.1557V56H55.5141L54.7549 50.6857C53.6414 52.7608 52.0471 54.431 49.972 55.6963C47.8969 56.9616 45.3916 57.5943 42.4561 57.5943ZM78.0582 22.8237L78.8174 28.062C80.0827 25.8857 81.7023 24.1902 83.6762 22.9755C85.7007 21.7608 88.0795 21.1535 90.8125 21.1535C93.495 21.1535 95.7219 21.7102 97.4933 22.8237C99.3154 23.8865 100.505 25.5061 101.062 27.6824C102.428 25.7086 104.073 24.1396 105.996 22.9755C107.97 21.7608 110.02 21.1535 112.146 21.1535C115.435 21.1535 118.042 22.0898 119.965 23.9624C121.939 25.7845 122.951 28.1633 123.002 31.0988V56H112.449V35.502C112.399 34.0343 112.171 32.8449 111.766 31.9339C111.361 30.9722 110.425 30.4408 108.957 30.3396C107.236 30.3396 105.768 30.9469 104.554 32.1616C103.39 33.3257 102.504 34.8441 101.897 36.7167C101.34 38.5388 101.062 40.4367 101.062 42.4106V56H90.4329V35.502C90.3823 34.0343 90.104 32.8449 89.5978 31.9339C89.1423 30.9722 88.1807 30.4408 86.7129 30.3396C85.0427 30.3396 83.6256 30.9469 82.4615 32.1616C81.348 33.3257 80.4876 34.8188 79.8803 36.6408C79.3235 38.4629 79.0452 40.3355 79.0452 42.2588V56H68.4166V22.8237H78.0582ZM135.927 22.8237L136.686 28.062C137.951 25.8857 139.571 24.1902 141.545 22.9755C143.569 21.7608 145.948 21.1535 148.681 21.1535C151.364 21.1535 153.591 21.7102 155.362 22.8237C157.184 23.8865 158.374 25.5061 158.93 27.6824C160.297 25.7086 161.942 24.1396 163.865 22.9755C165.839 21.7608 167.889 21.1535 170.014 21.1535C173.304 21.1535 175.911 22.0898 177.834 23.9624C179.808 25.7845 180.82 28.1633 180.871 31.0988V56H170.318V35.502C170.267 34.0343 170.04 32.8449 169.635 31.9339C169.23 30.9722 168.294 30.4408 166.826 30.3396C165.105 30.3396 163.637 30.9469 162.422 32.1616C161.258 33.3257 160.373 34.8441 159.765 36.7167C159.209 38.5388 158.93 40.4367 158.93 42.4106V56H148.302V35.502C148.251 34.0343 147.973 32.8449 147.467 31.9339C147.011 30.9722 146.049 30.4408 144.582 30.3396C142.911 30.3396 141.494 30.9469 140.33 32.1616C139.217 33.3257 138.356 34.8188 137.749 36.6408C137.192 38.4629 136.914 40.3355 136.914 42.2588V56H126.285V22.8237H135.927ZM184.154 22.8237H194.783V56H184.154V22.8237ZM183.926 11.0563C183.926 9.48733 184.534 8.19672 185.748 7.18448C187.014 6.17223 188.355 5.6661 189.772 5.6661C191.189 5.6661 192.48 6.17223 193.644 7.18448C194.859 8.19672 195.466 9.48733 195.466 11.0563C195.466 12.6253 194.859 13.9159 193.644 14.9282C192.48 15.8898 191.189 16.3706 189.772 16.3706C188.355 16.3706 187.014 15.8898 185.748 14.9282C184.534 13.9159 183.926 12.6253 183.926 11.0563ZM201.171 8.24733H211.8V22.6718H219.847V30.9469H211.8V56H201.171V30.9469H196.009V22.6718H201.171V8.24733Z" fill="#1169EE"/>
<path d="M6.79363 85.8198L9.15313 79.3263H9.19213L11.5126 85.8198H6.79363ZM8.17813 77.6493L2.75713 91.5723H4.64863L6.20863 87.3798H12.0976L13.6186 91.5723H15.6661L10.2256 77.6493H8.17813ZM16.7667 81.4908V91.5723H18.4242V85.8783C18.4242 85.4233 18.4827 85.0073 18.5997 84.6303C18.7297 84.2403 18.9182 83.9023 19.1652 83.6163C19.4122 83.3303 19.7177 83.1093 20.0817 82.9533C20.4587 82.7973 20.9007 82.7193 21.4077 82.7193C22.0447 82.7193 22.5452 82.9013 22.9092 83.2653C23.2732 83.6293 23.4552 84.1233 23.4552 84.7473V91.5723H25.1127V84.9423C25.1127 84.3963 25.0542 83.9023 24.9372 83.4603C24.8332 83.0053 24.6447 82.6153 24.3717 82.2903C24.0987 81.9653 23.7412 81.7118 23.2992 81.5298C22.8572 81.3478 22.3047 81.2568 21.6417 81.2568C20.1467 81.2568 19.0547 81.8678 18.3657 83.0898H18.3267V81.4908H16.7667ZM31.5606 92.9178C31.3656 93.4118 31.1706 93.8278 30.9756 94.1658C30.7936 94.5038 30.5856 94.7768 30.3516 94.9848C30.1306 95.2058 29.8771 95.3618 29.5911 95.4528C29.3181 95.5568 28.9996 95.6088 28.6356 95.6088C28.4406 95.6088 28.2456 95.5958 28.0506 95.5698C27.8556 95.5438 27.6671 95.4983 27.4851 95.4333V93.9123C27.6281 93.9773 27.7906 94.0293 27.9726 94.0683C28.1676 94.1203 28.3301 94.1463 28.4601 94.1463C28.7981 94.1463 29.0776 94.0618 29.2986 93.8928C29.5326 93.7368 29.7081 93.5093 29.8251 93.2103L30.5076 91.5138L26.5101 81.4908H28.3821L31.3266 89.7393H31.3656L34.1931 81.4908H35.9481L31.5606 92.9178ZM38.5611 86.5413C38.5611 85.9303 38.6391 85.3908 38.7951 84.9228C38.9641 84.4418 39.1916 84.0388 39.4776 83.7138C39.7636 83.3888 40.0951 83.1418 40.4721 82.9728C40.8621 82.8038 41.2716 82.7193 41.7006 82.7193C42.1296 82.7193 42.5326 82.8038 42.9096 82.9728C43.2996 83.1418 43.6376 83.3888 43.9236 83.7138C44.2096 84.0388 44.4306 84.4418 44.5866 84.9228C44.7556 85.3908 44.8401 85.9303 44.8401 86.5413C44.8401 87.1523 44.7556 87.6983 44.5866 88.1793C44.4306 88.6473 44.2096 89.0438 43.9236 89.3688C43.6376 89.6808 43.2996 89.9213 42.9096 90.0903C42.5326 90.2593 42.1296 90.3438 41.7006 90.3438C41.2716 90.3438 40.8621 90.2593 40.4721 90.0903C40.0951 89.9213 39.7636 89.6808 39.4776 89.3688C39.1916 89.0438 38.9641 88.6473 38.7951 88.1793C38.6391 87.6983 38.5611 87.1523 38.5611 86.5413ZM36.8061 86.5413C36.8061 87.2823 36.9101 87.9713 37.1181 88.6083C37.3261 89.2453 37.6381 89.8043 38.0541 90.2853C38.4701 90.7533 38.9836 91.1238 39.5946 91.3968C40.2056 91.6568 40.9076 91.7868 41.7006 91.7868C42.5066 91.7868 43.2086 91.6568 43.8066 91.3968C44.4176 91.1238 44.9311 90.7533 45.3471 90.2853C45.7631 89.8043 46.0751 89.2453 46.2831 88.6083C46.4911 87.9713 46.5951 87.2823 46.5951 86.5413C46.5951 85.8003 46.4911 85.1113 46.2831 84.4743C46.0751 83.8243 45.7631 83.2653 45.3471 82.7973C44.9311 82.3163 44.4176 81.9393 43.8066 81.6663C43.2086 81.3933 42.5066 81.2568 41.7006 81.2568C40.9076 81.2568 40.2056 81.3933 39.5946 81.6663C38.9836 81.9393 38.4701 82.3163 38.0541 82.7973C37.6381 83.2653 37.3261 83.8243 37.1181 84.4743C36.9101 85.1113 36.8061 85.8003 36.8061 86.5413ZM48.5494 81.4908V91.5723H50.2069V85.8783C50.2069 85.4233 50.2654 85.0073 50.3824 84.6303C50.5124 84.2403 50.7009 83.9023 50.9479 83.6163C51.1949 83.3303 51.5004 83.1093 51.8644 82.9533C52.2414 82.7973 52.6834 82.7193 53.1904 82.7193C53.8274 82.7193 54.3279 82.9013 54.6919 83.2653C55.0559 83.6293 55.2379 84.1233 55.2379 84.7473V91.5723H56.8954V84.9423C56.8954 84.3963 56.8369 83.9023 56.7199 83.4603C56.6159 83.0053 56.4274 82.6153 56.1544 82.2903C55.8814 81.9653 55.5239 81.7118 55.0819 81.5298C54.6399 81.3478 54.0874 81.2568 53.4244 81.2568C51.9294 81.2568 50.8374 81.8678 50.1484 83.0898H50.1094V81.4908H48.5494ZM66.3853 85.5663H60.5938C60.6198 85.1763 60.7043 84.8123 60.8473 84.4743C60.9903 84.1233 61.1853 83.8178 61.4323 83.5578C61.6793 83.2978 61.9718 83.0963 62.3098 82.9533C62.6608 82.7973 63.0508 82.7193 63.4798 82.7193C63.8958 82.7193 64.2728 82.7973 64.6108 82.9533C64.9618 83.0963 65.2608 83.2978 65.5078 83.5578C65.7678 83.8048 65.9693 84.1038 66.1123 84.4548C66.2683 84.8058 66.3593 85.1763 66.3853 85.5663ZM67.9843 88.3743H66.3463C66.2033 89.0373 65.9043 89.5313 65.4493 89.8563C65.0073 90.1813 64.4353 90.3438 63.7333 90.3438C63.1873 90.3438 62.7128 90.2528 62.3098 90.0708C61.9068 89.8888 61.5753 89.6483 61.3153 89.3493C61.0553 89.0373 60.8668 88.6863 60.7498 88.2963C60.6328 87.8933 60.5808 87.4708 60.5938 87.0288H68.1403C68.1663 86.4178 68.1078 85.7743 67.9648 85.0983C67.8348 84.4223 67.5878 83.7983 67.2238 83.2263C66.8728 82.6543 66.3983 82.1863 65.8003 81.8223C65.2153 81.4453 64.4743 81.2568 63.5773 81.2568C62.8883 81.2568 62.2513 81.3868 61.6663 81.6468C61.0943 81.9068 60.5938 82.2708 60.1648 82.7388C59.7488 83.2068 59.4238 83.7593 59.1898 84.3963C58.9558 85.0333 58.8388 85.7353 58.8388 86.5023C58.8648 87.2693 58.9753 87.9778 59.1703 88.6278C59.3783 89.2778 59.6838 89.8368 60.0868 90.3048C60.4898 90.7728 60.9838 91.1368 61.5688 91.3968C62.1668 91.6568 62.8688 91.7868 63.6748 91.7868C64.8188 91.7868 65.7678 91.5008 66.5218 90.9288C67.2758 90.3568 67.7633 89.5053 67.9843 88.3743ZM82.1302 84.7278H83.8462C83.7812 84.1298 83.6252 83.6163 83.3782 83.1873C83.1312 82.7453 82.8127 82.3813 82.4227 82.0953C82.0457 81.8093 81.6037 81.6013 81.0967 81.4713C80.6027 81.3283 80.0697 81.2568 79.4977 81.2568C78.7047 81.2568 78.0092 81.3998 77.4112 81.6858C76.8132 81.9588 76.3127 82.3423 75.9097 82.8363C75.5197 83.3173 75.2272 83.8893 75.0322 84.5523C74.8372 85.2023 74.7397 85.9043 74.7397 86.6583C74.7397 87.4123 74.8372 88.1078 75.0322 88.7448C75.2402 89.3688 75.5392 89.9083 75.9292 90.3633C76.3322 90.8183 76.8262 91.1693 77.4112 91.4163C78.0092 91.6633 78.6917 91.7868 79.4587 91.7868C80.7457 91.7868 81.7597 91.4488 82.5007 90.7728C83.2547 90.0968 83.7227 89.1348 83.9047 87.8868H82.2082C82.1042 88.6668 81.8182 89.2713 81.3502 89.7003C80.8952 90.1293 80.2582 90.3438 79.4392 90.3438C78.9192 90.3438 78.4707 90.2398 78.0937 90.0318C77.7167 89.8238 77.4112 89.5508 77.1772 89.2128C76.9432 88.8618 76.7677 88.4653 76.6507 88.0233C76.5467 87.5813 76.4947 87.1263 76.4947 86.6583C76.4947 86.1513 76.5467 85.6638 76.6507 85.1958C76.7547 84.7148 76.9237 84.2923 77.1577 83.9283C77.4047 83.5643 77.7297 83.2718 78.1327 83.0508C78.5357 82.8298 79.0362 82.7193 79.6342 82.7193C80.3362 82.7193 80.8952 82.8948 81.3112 83.2458C81.7272 83.5968 82.0002 84.0908 82.1302 84.7278ZM94.6903 91.5333C94.4043 91.7023 94.0078 91.7868 93.5008 91.7868C93.0718 91.7868 92.7273 91.6698 92.4673 91.4358C92.2203 91.1888 92.0968 90.7923 92.0968 90.2463C91.6418 90.7923 91.1088 91.1888 90.4978 91.4358C89.8998 91.6698 89.2498 91.7868 88.5478 91.7868C88.0928 91.7868 87.6573 91.7348 87.2413 91.6308C86.8383 91.5268 86.4873 91.3643 86.1883 91.1433C85.8893 90.9223 85.6488 90.6363 85.4668 90.2853C85.2978 89.9213 85.2133 89.4858 85.2133 88.9788C85.2133 88.4068 85.3108 87.9388 85.5058 87.5748C85.7008 87.2108 85.9543 86.9183 86.2663 86.6973C86.5913 86.4633 86.9553 86.2878 87.3583 86.1708C87.7743 86.0538 88.1968 85.9563 88.6258 85.8783C89.0808 85.7873 89.5098 85.7223 89.9128 85.6833C90.3288 85.6313 90.6928 85.5663 91.0048 85.4883C91.3168 85.3973 91.5638 85.2738 91.7458 85.1178C91.9278 84.9488 92.0188 84.7083 92.0188 84.3963C92.0188 84.0323 91.9473 83.7398 91.8043 83.5188C91.6743 83.2978 91.4988 83.1288 91.2778 83.0118C91.0698 82.8948 90.8293 82.8168 90.5563 82.7778C90.2963 82.7388 90.0363 82.7193 89.7763 82.7193C89.0743 82.7193 88.4893 82.8558 88.0213 83.1288C87.5533 83.3888 87.2998 83.8893 87.2608 84.6303H85.6033C85.6293 84.0063 85.7593 83.4798 85.9933 83.0508C86.2273 82.6218 86.5393 82.2773 86.9293 82.0173C87.3193 81.7443 87.7613 81.5493 88.2553 81.4323C88.7623 81.3153 89.3018 81.2568 89.8738 81.2568C90.3288 81.2568 90.7773 81.2893 91.2193 81.3543C91.6743 81.4193 92.0838 81.5558 92.4478 81.7638C92.8118 81.9588 93.1043 82.2383 93.3253 82.6023C93.5463 82.9663 93.6568 83.4408 93.6568 84.0258V89.2128C93.6568 89.6028 93.6763 89.8888 93.7153 90.0708C93.7673 90.2528 93.9233 90.3438 94.1833 90.3438C94.3263 90.3438 94.4953 90.3113 94.6903 90.2463V91.5333ZM91.9993 86.3658C91.7913 86.5218 91.5183 86.6388 91.1803 86.7168C90.8423 86.7818 90.4848 86.8403 90.1078 86.8923C89.7438 86.9313 89.3733 86.9833 88.9963 87.0483C88.6193 87.1003 88.2813 87.1913 87.9823 87.3213C87.6833 87.4513 87.4363 87.6398 87.2413 87.8868C87.0593 88.1208 86.9683 88.4458 86.9683 88.8618C86.9683 89.1348 87.0203 89.3688 87.1243 89.5638C87.2413 89.7458 87.3843 89.8953 87.5533 90.0123C87.7353 90.1293 87.9433 90.2138 88.1773 90.2658C88.4113 90.3178 88.6583 90.3438 88.9183 90.3438C89.4643 90.3438 89.9323 90.2723 90.3223 90.1293C90.7123 89.9733 91.0308 89.7848 91.2778 89.5638C91.5248 89.3298 91.7068 89.0828 91.8238 88.8228C91.9408 88.5498 91.9993 88.2963 91.9993 88.0623V86.3658ZM96.233 81.4908V91.5723H97.8905V85.8783C97.8905 85.4233 97.949 85.0073 98.066 84.6303C98.196 84.2403 98.3845 83.9023 98.6315 83.6163C98.8785 83.3303 99.184 83.1093 99.548 82.9533C99.925 82.7973 100.367 82.7193 100.874 82.7193C101.511 82.7193 102.011 82.9013 102.375 83.2653C102.739 83.6293 102.921 84.1233 102.921 84.7473V91.5723H104.579V84.9423C104.579 84.3963 104.52 83.9023 104.403 83.4603C104.299 83.0053 104.111 82.6153 103.838 82.2903C103.565 81.9653 103.207 81.7118 102.765 81.5298C102.323 81.3478 101.771 81.2568 101.108 81.2568C99.613 81.2568 98.521 81.8678 97.832 83.0898H97.793V81.4908H96.233ZM113.51 88.3938H111.852C111.878 89.0178 112.008 89.5508 112.242 89.9928C112.476 90.4218 112.788 90.7728 113.178 91.0458C113.568 91.3058 114.017 91.4943 114.524 91.6113C115.031 91.7283 115.564 91.7868 116.123 91.7868C116.63 91.7868 117.137 91.7348 117.644 91.6308C118.164 91.5398 118.625 91.3708 119.028 91.1238C119.444 90.8768 119.776 90.5518 120.023 90.1488C120.283 89.7458 120.413 89.2388 120.413 88.6278C120.413 88.1468 120.315 87.7438 120.12 87.4188C119.938 87.0938 119.691 86.8273 119.379 86.6193C119.08 86.3983 118.729 86.2228 118.326 86.0928C117.936 85.9628 117.533 85.8523 117.117 85.7613C116.727 85.6703 116.337 85.5858 115.947 85.5078C115.557 85.4168 115.206 85.3128 114.894 85.1958C114.582 85.0658 114.322 84.9098 114.114 84.7278C113.919 84.5328 113.822 84.2923 113.822 84.0063C113.822 83.7463 113.887 83.5383 114.017 83.3823C114.147 83.2133 114.316 83.0833 114.524 82.9923C114.732 82.8883 114.959 82.8168 115.206 82.7778C115.466 82.7388 115.72 82.7193 115.967 82.7193C116.24 82.7193 116.506 82.7518 116.766 82.8168C117.039 82.8688 117.286 82.9598 117.507 83.0898C117.728 83.2198 117.91 83.3953 118.053 83.6163C118.196 83.8243 118.281 84.0908 118.307 84.4158H119.964C119.925 83.8048 119.795 83.2978 119.574 82.8948C119.353 82.4788 119.054 82.1538 118.677 81.9198C118.313 81.6728 117.891 81.5038 117.41 81.4128C116.929 81.3088 116.402 81.2568 115.83 81.2568C115.388 81.2568 114.94 81.3153 114.485 81.4323C114.043 81.5363 113.64 81.7053 113.276 81.9393C112.925 82.1603 112.632 82.4528 112.398 82.8168C112.177 83.1808 112.067 83.6163 112.067 84.1233C112.067 84.7733 112.229 85.2803 112.554 85.6443C112.879 86.0083 113.282 86.2943 113.763 86.5023C114.257 86.6973 114.79 86.8533 115.362 86.9703C115.934 87.0743 116.461 87.1978 116.942 87.3408C117.436 87.4708 117.845 87.6463 118.17 87.8673C118.495 88.0883 118.658 88.4133 118.658 88.8423C118.658 89.1543 118.58 89.4143 118.424 89.6223C118.268 89.8173 118.066 89.9668 117.819 90.0708C117.585 90.1748 117.325 90.2463 117.039 90.2853C116.753 90.3243 116.48 90.3438 116.22 90.3438C115.882 90.3438 115.551 90.3113 115.226 90.2463C114.914 90.1813 114.628 90.0773 114.368 89.9343C114.121 89.7783 113.919 89.5768 113.763 89.3298C113.607 89.0698 113.523 88.7578 113.51 88.3938ZM131.177 91.5333C130.891 91.7023 130.494 91.7868 129.987 91.7868C129.558 91.7868 129.214 91.6698 128.954 91.4358C128.707 91.1888 128.583 90.7923 128.583 90.2463C128.128 90.7923 127.595 91.1888 126.984 91.4358C126.386 91.6698 125.736 91.7868 125.034 91.7868C124.579 91.7868 124.144 91.7348 123.728 91.6308C123.325 91.5268 122.974 91.3643 122.675 91.1433C122.376 90.9223 122.135 90.6363 121.953 90.2853C121.784 89.9213 121.7 89.4858 121.7 88.9788C121.7 88.4068 121.797 87.9388 121.992 87.5748C122.187 87.2108 122.441 86.9183 122.753 86.6973C123.078 86.4633 123.442 86.2878 123.845 86.1708C124.261 86.0538 124.683 85.9563 125.112 85.8783C125.567 85.7873 125.996 85.7223 126.399 85.6833C126.815 85.6313 127.179 85.5663 127.491 85.4883C127.803 85.3973 128.05 85.2738 128.232 85.1178C128.414 84.9488 128.505 84.7083 128.505 84.3963C128.505 84.0323 128.434 83.7398 128.291 83.5188C128.161 83.2978 127.985 83.1288 127.764 83.0118C127.556 82.8948 127.316 82.8168 127.043 82.7778C126.783 82.7388 126.523 82.7193 126.263 82.7193C125.561 82.7193 124.976 82.8558 124.508 83.1288C124.04 83.3888 123.786 83.8893 123.747 84.6303H122.09C122.116 84.0063 122.246 83.4798 122.48 83.0508C122.714 82.6218 123.026 82.2773 123.416 82.0173C123.806 81.7443 124.248 81.5493 124.742 81.4323C125.249 81.3153 125.788 81.2568 126.36 81.2568C126.815 81.2568 127.264 81.2893 127.706 81.3543C128.161 81.4193 128.57 81.5558 128.934 81.7638C129.298 81.9588 129.591 82.2383 129.812 82.6023C130.033 82.9663 130.143 83.4408 130.143 84.0258V89.2128C130.143 89.6028 130.163 89.8888 130.202 90.0708C130.254 90.2528 130.41 90.3438 130.67 90.3438C130.813 90.3438 130.982 90.3113 131.177 90.2463V91.5333ZM128.486 86.3658C128.278 86.5218 128.005 86.6388 127.667 86.7168C127.329 86.7818 126.971 86.8403 126.594 86.8923C126.23 86.9313 125.86 86.9833 125.483 87.0483C125.106 87.1003 124.768 87.1913 124.469 87.3213C124.17 87.4513 123.923 87.6398 123.728 87.8868C123.546 88.1208 123.455 88.4458 123.455 88.8618C123.455 89.1348 123.507 89.3688 123.611 89.5638C123.728 89.7458 123.871 89.8953 124.04 90.0123C124.222 90.1293 124.43 90.2138 124.664 90.2658C124.898 90.3178 125.145 90.3438 125.405 90.3438C125.951 90.3438 126.419 90.2723 126.809 90.1293C127.199 89.9733 127.517 89.7848 127.764 89.5638C128.011 89.3298 128.193 89.0828 128.31 88.8228C128.427 88.5498 128.486 88.2963 128.486 88.0623V86.3658ZM137.263 91.5723L140.948 81.4908H139.213L136.463 89.8953H136.424L133.597 81.4908H131.744L135.488 91.5723H137.263ZM149.47 85.5663H143.678C143.704 85.1763 143.789 84.8123 143.932 84.4743C144.075 84.1233 144.27 83.8178 144.517 83.5578C144.764 83.2978 145.056 83.0963 145.394 82.9533C145.745 82.7973 146.135 82.7193 146.564 82.7193C146.98 82.7193 147.357 82.7973 147.695 82.9533C148.046 83.0963 148.345 83.2978 148.592 83.5578C148.852 83.8048 149.054 84.1038 149.197 84.4548C149.353 84.8058 149.444 85.1763 149.47 85.5663ZM151.069 88.3743H149.431C149.288 89.0373 148.989 89.5313 148.534 89.8563C148.092 90.1813 147.52 90.3438 146.818 90.3438C146.272 90.3438 145.797 90.2528 145.394 90.0708C144.991 89.8888 144.66 89.6483 144.4 89.3493C144.14 89.0373 143.951 88.6863 143.834 88.2963C143.717 87.8933 143.665 87.4708 143.678 87.0288H151.225C151.251 86.4178 151.192 85.7743 151.049 85.0983C150.919 84.4223 150.672 83.7983 150.308 83.2263C149.957 82.6543 149.483 82.1863 148.885 81.8223C148.3 81.4453 147.559 81.2568 146.662 81.2568C145.973 81.2568 145.336 81.3868 144.751 81.6468C144.179 81.9068 143.678 82.2708 143.249 82.7388C142.833 83.2068 142.508 83.7593 142.274 84.3963C142.04 85.0333 141.923 85.7353 141.923 86.5023C141.949 87.2693 142.06 87.9778 142.255 88.6278C142.463 89.2778 142.768 89.8368 143.171 90.3048C143.574 90.7728 144.068 91.1368 144.653 91.3968C145.251 91.6568 145.953 91.7868 146.759 91.7868C147.903 91.7868 148.852 91.5008 149.606 90.9288C150.36 90.3568 150.848 89.5053 151.069 88.3743ZM158.37 81.4908V91.5723H160.028V85.2933C160.028 85.0983 160.073 84.8578 160.164 84.5718C160.268 84.2728 160.424 83.9868 160.632 83.7138C160.853 83.4408 161.133 83.2068 161.471 83.0118C161.822 82.8168 162.238 82.7193 162.719 82.7193C163.096 82.7193 163.401 82.7778 163.635 82.8948C163.882 82.9988 164.077 83.1548 164.22 83.3628C164.363 83.5578 164.461 83.7918 164.513 84.0648C164.578 84.3378 164.61 84.6368 164.61 84.9618V91.5723H166.268V85.2933C166.268 84.5133 166.502 83.8893 166.97 83.4213C167.438 82.9533 168.081 82.7193 168.9 82.7193C169.303 82.7193 169.628 82.7778 169.875 82.8948C170.135 83.0118 170.337 83.1743 170.48 83.3823C170.623 83.5773 170.72 83.8113 170.772 84.0843C170.824 84.3573 170.85 84.6498 170.85 84.9618V91.5723H172.508V84.1818C172.508 83.6618 172.423 83.2198 172.254 82.8558C172.098 82.4788 171.871 82.1733 171.572 81.9393C171.286 81.7053 170.935 81.5363 170.519 81.4323C170.116 81.3153 169.661 81.2568 169.154 81.2568C168.491 81.2568 167.88 81.4063 167.321 81.7053C166.775 82.0043 166.333 82.4268 165.995 82.9728C165.787 82.3488 165.429 81.9068 164.922 81.6468C164.415 81.3868 163.85 81.2568 163.226 81.2568C161.809 81.2568 160.723 81.8288 159.969 82.9728H159.93V81.4908H158.37ZM176.204 86.5413C176.204 85.9303 176.282 85.3908 176.438 84.9228C176.607 84.4418 176.834 84.0388 177.12 83.7138C177.406 83.3888 177.738 83.1418 178.115 82.9728C178.505 82.8038 178.914 82.7193 179.343 82.7193C179.772 82.7193 180.175 82.8038 180.552 82.9728C180.942 83.1418 181.28 83.3888 181.566 83.7138C181.852 84.0388 182.073 84.4418 182.229 84.9228C182.398 85.3908 182.483 85.9303 182.483 86.5413C182.483 87.1523 182.398 87.6983 182.229 88.1793C182.073 88.6473 181.852 89.0438 181.566 89.3688C181.28 89.6808 180.942 89.9213 180.552 90.0903C180.175 90.2593 179.772 90.3438 179.343 90.3438C178.914 90.3438 178.505 90.2593 178.115 90.0903C177.738 89.9213 177.406 89.6808 177.12 89.3688C176.834 89.0438 176.607 88.6473 176.438 88.1793C176.282 87.6983 176.204 87.1523 176.204 86.5413ZM174.449 86.5413C174.449 87.2823 174.553 87.9713 174.761 88.6083C174.969 89.2453 175.281 89.8043 175.697 90.2853C176.113 90.7533 176.626 91.1238 177.237 91.3968C177.848 91.6568 178.55 91.7868 179.343 91.7868C180.149 91.7868 180.851 91.6568 181.449 91.3968C182.06 91.1238 182.574 90.7533 182.99 90.2853C183.406 89.8043 183.718 89.2453 183.926 88.6083C184.134 87.9713 184.238 87.2823 184.238 86.5413C184.238 85.8003 184.134 85.1113 183.926 84.4743C183.718 83.8243 183.406 83.2653 182.99 82.7973C182.574 82.3163 182.06 81.9393 181.449 81.6663C180.851 81.3933 180.149 81.2568 179.343 81.2568C178.55 81.2568 177.848 81.3933 177.237 81.6663C176.626 81.9393 176.113 82.3163 175.697 82.7973C175.281 83.2653 174.969 83.8243 174.761 84.4743C174.553 85.1113 174.449 85.8003 174.449 86.5413ZM186.192 81.4908V91.5723H187.849V85.8783C187.849 85.4233 187.908 85.0073 188.025 84.6303C188.155 84.2403 188.343 83.9023 188.59 83.6163C188.837 83.3303 189.143 83.1093 189.507 82.9533C189.884 82.7973 190.326 82.7193 190.833 82.7193C191.47 82.7193 191.97 82.9013 192.334 83.2653C192.698 83.6293 192.88 84.1233 192.88 84.7473V91.5723H194.538V84.9423C194.538 84.3963 194.479 83.9023 194.362 83.4603C194.258 83.0053 194.07 82.6153 193.797 82.2903C193.524 81.9653 193.166 81.7118 192.724 81.5298C192.282 81.3478 191.73 81.2568 191.067 81.2568C189.572 81.2568 188.48 81.8678 187.791 83.0898H187.752V81.4908H186.192ZM204.028 85.5663H198.236C198.262 85.1763 198.347 84.8123 198.49 84.4743C198.633 84.1233 198.828 83.8178 199.075 83.5578C199.322 83.2978 199.614 83.0963 199.952 82.9533C200.303 82.7973 200.693 82.7193 201.122 82.7193C201.538 82.7193 201.915 82.7973 202.253 82.9533C202.604 83.0963 202.903 83.2978 203.15 83.5578C203.41 83.8048 203.612 84.1038 203.755 84.4548C203.911 84.8058 204.002 85.1763 204.028 85.5663ZM205.627 88.3743H203.989C203.846 89.0373 203.547 89.5313 203.092 89.8563C202.65 90.1813 202.078 90.3438 201.376 90.3438C200.83 90.3438 200.355 90.2528 199.952 90.0708C199.549 89.8888 199.218 89.6483 198.958 89.3493C198.698 89.0373 198.509 88.6863 198.392 88.2963C198.275 87.8933 198.223 87.4708 198.236 87.0288H205.783C205.809 86.4178 205.75 85.7743 205.607 85.0983C205.477 84.4223 205.23 83.7983 204.866 83.2263C204.515 82.6543 204.041 82.1863 203.443 81.8223C202.858 81.4453 202.117 81.2568 201.22 81.2568C200.531 81.2568 199.894 81.3868 199.309 81.6468C198.737 81.9068 198.236 82.2708 197.807 82.7388C197.391 83.2068 197.066 83.7593 196.832 84.3963C196.598 85.0333 196.481 85.7353 196.481 86.5023C196.507 87.2693 196.618 87.9778 196.813 88.6278C197.021 89.2778 197.326 89.8368 197.729 90.3048C198.132 90.7728 198.626 91.1368 199.211 91.3968C199.809 91.6568 200.511 91.7868 201.317 91.7868C202.461 91.7868 203.41 91.5008 204.164 90.9288C204.918 90.3568 205.406 89.5053 205.627 88.3743ZM211.46 92.9178C211.265 93.4118 211.07 93.8278 210.875 94.1658C210.693 94.5038 210.485 94.7768 210.251 94.9848C210.03 95.2058 209.776 95.3618 209.49 95.4528C209.217 95.5568 208.899 95.6088 208.535 95.6088C208.34 95.6088 208.145 95.5958 207.95 95.5698C207.755 95.5438 207.566 95.4983 207.384 95.4333V93.9123C207.527 93.9773 207.69 94.0293 207.872 94.0683C208.067 94.1203 208.229 94.1463 208.359 94.1463C208.697 94.1463 208.977 94.0618 209.198 93.8928C209.432 93.7368 209.607 93.5093 209.724 93.2103L210.407 91.5138L206.409 81.4908H208.281L211.226 89.7393H211.265L214.092 81.4908H215.847L211.46 92.9178ZM216.174 89.4078V91.5723H218.339V89.4078H216.174Z" fill="white"/>
</g>
<defs>
<clipPath id="clip0_80_1354">
<rect width="223" height="95" fill="white"/>
</clipPath>
</defs>
</svg>
