<svg width="48" height="48" viewBox="0 0 48 48" fill="none" xmlns="http://www.w3.org/2000/svg">
<path d="M28.0815 7.22979C26.8906 6.97496 25.6549 6.84082 24.3878 6.84082C14.6974 6.84082 6.8418 14.6865 6.8418 24.3646C6.8418 34.0428 14.6974 41.8884 24.3878 41.8884C33.655 41.8884 41.2441 34.7132 41.8894 25.6219C40.9391 25.9006 39.9409 26.0677 38.9101 26.1078C38.0473 33.3485 31.8775 38.9678 24.3878 38.9678C16.307 38.9678 9.76243 32.4262 9.76243 24.3646C9.76243 16.303 16.307 9.76146 24.3878 9.76146C25.2001 9.76146 25.9969 9.82755 26.7731 9.95465C27.0974 8.98696 27.5392 8.07304 28.0815 7.22979Z" fill="white"/>
<path d="M22.9043 17.0629C22.9043 16.2563 23.5581 15.6025 24.3646 15.6025C25.1711 15.6025 25.8249 16.2563 25.8249 17.0629V31.666C25.8249 32.4725 25.1711 33.1263 24.3646 33.1263C23.5581 33.1263 22.9043 32.4725 22.9043 31.666V17.0629Z" fill="white"/>
<path d="M31.6666 22.9043C32.4731 22.9043 33.127 23.5581 33.127 24.3646C33.127 25.1711 32.4731 25.8249 31.6666 25.8249H17.0635C16.2569 25.8249 15.6031 25.1711 15.6031 24.3646C15.6031 23.5581 16.257 22.9043 17.0635 22.9043H31.6666Z" fill="white"/>
</svg>
