<svg width="254" height="110" viewBox="0 0 254 110" fill="none" xmlns="http://www.w3.org/2000/svg">
<g clip-path="url(#clip0_81_1578)">
<path d="M18.4124 76.8076C15.315 76.8076 12.4183 76.2626 9.72242 75.1728C7.08389 74.083 4.84687 72.563 3.01137 70.6127L8.00164 63.9877C9.83714 65.6511 11.5292 66.8557 13.0779 67.6014C14.684 68.2897 16.118 68.6338 17.3799 68.6338C18.8712 68.6338 20.1045 68.4044 21.0796 67.9455C22.0547 67.4867 22.5423 66.741 22.5423 65.7085C22.5423 64.7334 22.1407 63.959 21.3377 63.3855C20.592 62.8119 19.6169 62.353 18.4124 62.0088C17.2078 61.6073 15.9172 61.2058 14.5406 60.8043C11.099 59.7145 8.60391 58.1371 7.05521 56.0721C5.56386 53.9498 4.81819 51.6555 4.81819 49.189C4.81819 47.2961 5.30575 45.4033 6.28086 43.5104C7.31333 41.5602 8.91939 39.9541 11.099 38.6922C13.3361 37.373 16.204 36.7133 19.703 36.7133C22.8577 36.7133 25.5249 37.0288 27.7046 37.6598C29.8843 38.2907 31.9492 39.3232 33.8994 40.7572L29.3393 47.8124C28.2495 46.952 27.0163 46.235 25.6397 45.6614C24.3204 45.0304 23.0872 44.6863 21.94 44.6289C20.3913 44.5716 19.1867 44.8584 18.3263 45.4893C17.4659 46.0629 17.0357 46.7512 17.0357 47.5543C16.9784 48.6441 17.3799 49.5045 18.2403 50.1354C19.158 50.7664 20.3052 51.2539 21.6819 51.5981C23.0585 51.9422 24.4064 52.3438 25.7257 52.8026C28.4216 53.7204 30.5726 55.0397 32.1786 56.7604C33.7847 58.4239 34.5877 60.6609 34.5877 63.4715C34.5877 65.7659 33.9855 67.9455 32.7809 70.0105C31.6337 72.018 29.8556 73.6528 27.4465 74.9147C25.0947 76.1766 22.0834 76.8076 18.4124 76.8076ZM48.3661 77.84C44.9819 77.84 42.1426 76.8076 39.8482 74.7426C37.5538 72.6203 36.3493 69.8957 36.2346 66.5689V38.4341H48.28V62.0949C48.3948 63.7583 48.825 65.1062 49.5706 66.1387C50.3163 67.1138 51.5782 67.6014 53.3564 67.6014C56.0522 67.6014 58.1745 66.3108 59.7232 63.7296C61.2719 61.0911 62.0463 57.7642 62.0463 53.7491V38.4341H74.0918V76.0332H63.1648L62.3044 70.0105C61.0425 72.3622 59.2357 74.2551 56.884 75.689C54.5322 77.123 51.6929 77.84 48.3661 77.84ZM88.9644 38.4341L89.8248 44.3708C91.2588 41.9044 93.0943 39.9828 95.3313 38.6062C97.6257 37.2296 100.322 36.5412 103.419 36.5412C106.459 36.5412 108.983 37.1722 110.99 38.4341C113.055 39.6387 114.403 41.4742 115.034 43.9406C116.583 41.7036 118.447 39.9255 120.627 38.6062C122.864 37.2296 125.187 36.5412 127.596 36.5412C131.324 36.5412 134.278 37.6024 136.458 39.7247C138.695 41.7896 139.842 44.4855 139.9 47.8124V76.0332H127.94V52.8026C127.883 51.1392 127.625 49.7913 127.166 48.7588C126.707 47.669 125.646 47.0667 123.982 46.952C122.032 46.952 120.369 47.6403 118.992 49.0169C117.673 50.3362 116.669 52.057 115.981 54.1793C115.35 56.2442 115.034 58.3952 115.034 60.6322V76.0332H102.989V52.8026C102.931 51.1392 102.616 49.7913 102.042 48.7588C101.526 47.669 100.436 47.0667 98.7729 46.952C96.88 46.952 95.274 47.6403 93.9547 49.0169C92.6928 50.3362 91.7177 52.0283 91.0294 54.0932C90.3984 56.1582 90.083 58.2805 90.083 60.4601V76.0332H78.0375V38.4341H88.9644ZM154.798 38.4341L155.658 44.3708C157.092 41.9044 158.928 39.9828 161.165 38.6062C163.459 37.2296 166.155 36.5412 169.252 36.5412C172.292 36.5412 174.816 37.1722 176.824 38.4341C178.889 39.6387 180.237 41.4742 180.868 43.9406C182.416 41.7036 184.281 39.9255 186.46 38.6062C188.697 37.2296 191.02 36.5412 193.429 36.5412C197.158 36.5412 200.112 37.6024 202.291 39.7247C204.528 41.7896 205.676 44.4855 205.733 47.8124V76.0332H193.774V52.8026C193.716 51.1392 193.458 49.7913 192.999 48.7588C192.54 47.669 191.479 47.0667 189.816 46.952C187.866 46.952 186.202 47.6403 184.825 49.0169C183.506 50.3362 182.502 52.057 181.814 54.1793C181.183 56.2442 180.868 58.3952 180.868 60.6322V76.0332H168.822V52.8026C168.765 51.1392 168.449 49.7913 167.876 48.7588C167.36 47.669 166.27 47.0667 164.606 46.952C162.713 46.952 161.107 47.6403 159.788 49.0169C158.526 50.3362 157.551 52.0283 156.863 54.0932C156.232 56.1582 155.916 58.2805 155.916 60.4601V76.0332H143.871V38.4341H154.798ZM209.704 38.4341H221.75V76.0332H209.704V38.4341ZM209.446 25.098C209.446 23.3199 210.134 21.8572 211.511 20.7101C212.945 19.5629 214.465 18.9893 216.071 18.9893C217.677 18.9893 219.14 19.5629 220.459 20.7101C221.836 21.8572 222.524 23.3199 222.524 25.098C222.524 26.8762 221.836 28.3389 220.459 29.486C219.14 30.5759 217.677 31.1208 216.071 31.1208C214.465 31.1208 212.945 30.5759 211.511 29.486C210.134 28.3389 209.446 26.8762 209.446 25.098ZM229.24 21.9146H241.285V38.262H250.405V47.6403H241.285V76.0332H229.24V47.6403H223.389V38.262H229.24V21.9146Z" fill="#1169EE"/>
</g>
<defs>
<clipPath id="clip0_81_1578">
<rect width="254" height="110" fill="white"/>
</clipPath>
</defs>
</svg>
