<svg width="32" height="32" viewBox="0 0 32 32" fill="none" xmlns="http://www.w3.org/2000/svg">
<path d="M27.6667 9.4H19.5V7H27.6667V9.4ZM29.65 21.4C29.1833 22.96 27.3167 25 23.7 25C20.0833 25 17.1667 22.96 17.1667 18.16C17.1667 13.48 19.85 11.08 23.5833 11.08C27.2 11.08 29.4167 13.24 29.8833 16.36C30 16.96 30 17.8 30 19H20.6667C20.7833 22.84 24.75 22.96 26.0333 21.4H29.65ZM20.6667 16.6H26.5C26.3833 14.8 25.2167 13.96 23.5833 13.96C21.95 13.96 21.0167 14.8 20.6667 16.6ZM9.58333 25H2V7H10.1667C16.5833 7.12 16.7 13.48 13.3167 15.28C17.2833 16.84 17.4 25 9.58333 25ZM5.5 14.2H9.7C12.6167 14.2 13.0833 10.6 9.35 10.6H5.5V14.2ZM9.46667 17.8H5.5V21.4H9.35C12.9667 21.4 12.7333 17.8 9.46667 17.8Z" fill="black"/>
</svg>
