<svg width="32" height="32" viewBox="0 0 32 32" fill="none" xmlns="http://www.w3.org/2000/svg">
<path d="M14.8616 17.2119L14.2924 18.0341L14.2924 18.0341L14.8616 17.2119ZM17.1384 17.2119L17.7076 18.0341L17.7076 18.0341L17.1384 17.2119ZM5 8H27V6H5V8ZM28 9V23H30V9H28ZM27 24H5V26H27V24ZM4 23V9H2V23H4ZM5 24C4.44772 24 4 23.5523 4 23H2C2 24.6569 3.34315 26 5 26V24ZM28 23C28 23.5523 27.5523 24 27 24V26C28.6569 26 30 24.6569 30 23H28ZM27 8C27.5523 8 28 8.44772 28 9H30C30 7.34315 28.6569 6 27 6V8ZM5 6C3.34315 6 2 7.34315 2 9H4C4 8.44772 4.44772 8 5 8V6ZM2.43079 9.82219L14.2924 18.0341L15.4308 16.3897L3.56921 8.17781L2.43079 9.82219ZM17.7076 18.0341L29.5692 9.82219L28.4308 8.17781L16.5692 16.3897L17.7076 18.0341ZM14.2924 18.0341C15.3197 18.7453 16.6803 18.7453 17.7076 18.0341L16.5692 16.3897C16.2268 16.6267 15.7732 16.6267 15.4308 16.3897L14.2924 18.0341Z" fill="black"/>
</svg>
